<?xml version="1.0" standalone="no"?>
<!DOCTYPE svg PUBLIC "-//W3C//DTD SVG 20010904//EN"
 "http://www.w3.org/TR/2001/REC-SVG-20010904/DTD/svg10.dtd">
<svg version="1.0" xmlns="http://www.w3.org/2000/svg"
 width="50.000000pt" height="50.000000pt" viewBox="0 0 50.000000 50.000000"
 preserveAspectRatio="xMidYMid meet">

<g transform="translate(0.000000,50.000000) scale(0.100000,-0.100000)"
fill="#000000" stroke="none">
<path d="M177 464 c-4 -4 -7 -18 -7 -30 0 -22 -4 -23 -82 -26 l-83 -3 0 -185
0 -185 245 0 245 0 0 185 0 185 -82 3 c-81 3 -82 3 -85 30 -3 26 -5 27 -73 30
-39 1 -74 0 -78 -4z m133 -34 c0 -18 -7 -20 -60 -20 -53 0 -60 2 -60 20 0 18
7 20 60 20 53 0 60 -2 60 -20z m170 -125 l0 -85 -230 0 -230 0 0 85 0 85 230
0 230 0 0 -85z m0 -180 l0 -75 -230 0 -230 0 0 75 0 75 230 0 230 0 0 -75z"/>
<path d="M234 269 c-10 -17 13 -36 27 -22 12 12 4 33 -11 33 -5 0 -12 -5 -16
-11z"/>
</g>
</svg>
