<?xml version="1.0" standalone="no"?>
<!DOCTYPE svg PUBLIC "-//W3C//DTD SVG 20010904//EN"
 "http://www.w3.org/TR/2001/REC-SVG-20010904/DTD/svg10.dtd">
<svg version="1.0" xmlns="http://www.w3.org/2000/svg"
 width="50.000000pt" height="50.000000pt" viewBox="0 0 50.000000 50.000000"
 preserveAspectRatio="xMidYMid meet">

<g transform="translate(0.000000,50.000000) scale(0.100000,-0.100000)"
fill="#000000" stroke="none">
<path d="M44 314 c-46 -100 -50 -114 -34 -114 6 0 10 -9 10 -20 0 -82 113
-131 175 -77 20 17 28 35 32 70 4 36 10 47 23 47 13 0 19 -11 23 -47 4 -35 12
-53 32 -70 62 -54 175 -5 175 76 0 10 6 21 12 23 18 6 -72 202 -94 206 -9 2
-22 -6 -28 -18 -14 -27 -2 -42 12 -16 10 17 16 11 49 -55 21 -41 38 -76 39
-79 0 -3 -99 -5 -220 -5 -121 0 -220 2 -220 5 1 3 18 38 39 79 33 66 39 72 49
55 14 -26 27 -11 12 15 -21 40 -40 24 -86 -75z m144 -100 c29 -8 30 -52 0 -89
-19 -24 -26 -27 -66 -22 -24 3 -51 11 -59 19 -20 21 -34 86 -19 92 17 7 118 7
144 0z m265 0 c11 -4 13 -13 7 -41 -11 -48 -30 -64 -82 -70 -40 -5 -47 -2 -66
22 -27 34 -29 82 -4 88 26 7 128 8 145 1z"/>
</g>
</svg>
