<?xml version="1.0" standalone="no"?>
<!DOCTYPE svg PUBLIC "-//W3C//DTD SVG 20010904//EN"
 "http://www.w3.org/TR/2001/REC-SVG-20010904/DTD/svg10.dtd">
<svg version="1.0" xmlns="http://www.w3.org/2000/svg"
 width="225.000000pt" height="225.000000pt" viewBox="0 0 225.000000 225.000000"
 preserveAspectRatio="xMidYMid meet">

<g transform="translate(0.000000,225.000000) scale(0.100000,-0.100000)"
fill="#000000" stroke="none">
<path d="M1005 2146 c-159 -37 -275 -110 -329 -206 -28 -50 -31 -63 -30 -140
0 -67 6 -101 28 -160 15 -41 34 -108 41 -148 25 -136 104 -261 201 -318 235
-138 531 -44 644 202 50 107 64 135 100 191 68 108 43 270 -60 385 -51 58 -62
42 -16 -24 78 -115 97 -241 49 -329 -14 -27 -29 -49 -33 -49 -4 0 -10 14 -14
32 -13 64 -122 198 -162 198 -29 0 -25 -24 7 -49 81 -62 125 -130 135 -203 4
-36 -1 -56 -30 -116 -46 -95 -123 -172 -213 -215 -63 -30 -75 -32 -173 -32
-94 1 -111 3 -161 28 -87 42 -143 98 -186 184 -32 65 -37 86 -41 161 -7 143
26 218 113 262 62 31 170 33 288 6 91 -21 137 -18 203 15 73 37 155 142 129
167 -3 4 -27 -17 -52 -46 -58 -67 -122 -105 -177 -105 -22 0 -81 7 -130 16
-104 20 -156 21 -226 6 -85 -18 -157 -88 -184 -180 -7 -22 -8 -21 -22 16 -22
58 -21 163 2 211 44 92 162 169 306 198 136 28 228 18 381 -40 50 -19 98 -33
106 -32 27 6 -78 75 -149 99 -83 27 -258 35 -345 15z"/>
<path d="M1038 960 c-255 -46 -510 -206 -645 -405 -111 -164 -205 -429 -162
-456 16 -10 1838 -13 1863 -3 24 9 20 51 -13 152 -114 347 -364 598 -692 692
-83 24 -271 35 -351 20z m315 -74 c52 -13 109 -32 126 -41 l32 -16 -18 -30
c-27 -46 -98 -108 -151 -132 -33 -14 -74 -22 -137 -25 -103 -5 -185 13 -276
58 -55 28 -122 95 -116 115 2 5 30 20 63 33 166 67 314 79 477 38z m343 -168
c111 -84 223 -226 280 -355 21 -48 74 -197 74 -209 0 -2 -408 -4 -906 -4
l-906 0 7 27 c6 25 57 116 164 293 54 91 171 209 267 273 99 65 97 65 127 14
53 -90 189 -154 349 -164 97 -6 153 4 235 44 55 27 134 103 155 148 l11 25 46
-26 c25 -15 69 -44 97 -66z"/>
</g>
</svg>
